<?xml version="1.0" encoding="UTF-8" standalone="no"?><!DOCTYPE svg PUBLIC "-//W3C//DTD SVG 1.1//EN" "http://www.w3.org/Graphics/SVG/1.1/DTD/svg11.dtd"><svg width="100%" height="100%" viewBox="0 0 2999 2820" version="1.1" xmlns="http://www.w3.org/2000/svg" xmlns:xlink="http://www.w3.org/1999/xlink" xml:space="preserve" xmlns:serif="http://www.serif.com/" style="fill-rule:evenodd;clip-rule:evenodd;stroke-linejoin:round;stroke-miterlimit:2;"><g><path d="M2828.624,1598.571c-37.972,-130.098 -108.813,-252.523 -212.391,-354.075c-322.505,-316.198 -841.052,-311.077 -1157.25,11.428c-316.198,322.505 -311.077,841.052 11.428,1157.25c103.578,101.552 227.377,169.961 358.2,205.357c112.897,-32.007 224.966,-80.46 332.16,-144.906c-202.217,36.609 -418.561,-22.07 -576.331,-176.754c-258.316,-253.264 -262.417,-668.602 -9.153,-926.918c253.264,-258.316 668.602,-262.417 926.918,-9.153c157.77,154.684 220.71,369.827 188.102,572.728c62.316,-108.445 108.547,-221.449 138.318,-334.956Z" style="fill:#470077;"/><path d="M169.824,1630.269c37.961,-130.102 108.79,-252.532 212.359,-354.094c322.477,-316.227 841.024,-311.153 1157.251,11.324c316.227,322.477 311.153,841.024 -11.324,1157.251c-103.569,101.562 -227.362,169.982 -358.182,205.389c-112.9,-31.997 -224.973,-80.44 -332.173,-144.876c202.221,36.591 418.559,-22.108 576.315,-176.806c258.293,-253.287 262.357,-668.626 9.07,-926.919c-253.287,-258.293 -668.626,-262.357 -926.919,-9.07c-157.756,154.699 -220.676,369.847 -188.05,572.745c-62.326,-108.44 -108.567,-221.44 -138.348,-334.944Z" style="fill:#863faf;"/><path d="M2737.719,1189.693c-37.961,130.102 -108.79,252.532 -212.359,354.094c-322.477,316.227 -841.024,311.153 -1157.251,-11.324c-316.227,-322.477 -311.153,-841.024 11.324,-1157.251c103.569,-101.562 227.362,-169.982 358.182,-205.389c112.9,31.997 224.973,80.44 332.173,144.876c-202.221,-36.591 -418.559,22.108 -576.315,176.806c-258.293,253.287 -262.357,668.626 -9.07,926.919c253.287,258.293 668.626,262.357 926.919,9.07c157.756,-154.699 220.676,-369.847 188.05,-572.745c62.326,108.44 108.567,221.44 138.348,334.944Z" style="fill:#9254b2;"/><path d="M1189.693,169.824c130.102,37.961 252.532,108.79 354.094,212.359c316.227,322.477 311.153,841.024 -11.324,1157.251c-322.477,316.227 -841.024,311.153 -1157.251,-11.324c-101.562,-103.569 -169.982,-227.362 -205.389,-358.182c31.997,-112.9 80.44,-224.973 144.876,-332.173c-36.591,202.221 22.108,418.559 176.806,576.315c253.287,258.293 668.626,262.357 926.919,9.07c258.293,-253.287 262.357,-668.626 9.07,-926.919c-154.699,-157.756 -369.847,-220.676 -572.745,-188.05c108.44,-62.326 221.44,-108.567 334.944,-138.348Z" style="fill:#b469ff;"/></g></svg>